<svg width="252" height="61" viewBox="0 0 252 61" fill="none" xmlns="http://www.w3.org/2000/svg">
<path d="M13.3801 11C12.5521 11 11.8257 10.7985 11.201 10.3956C10.5763 9.99267 10.0896 9.46215 9.74092 8.80403C9.40678 8.14591 9.23971 7.42735 9.23971 6.64835C9.23971 5.33211 9.71913 4.07631 10.678 2.88095C11.6368 1.68559 12.8862 0.725275 14.4262 0L18 1.85348C17.0412 2.26984 16.1985 2.76679 15.4722 3.34432C14.7458 3.92186 14.2373 4.59341 13.9467 5.35897C14.7748 5.46642 15.4722 5.75519 16.0387 6.22527C16.6199 6.68193 16.9104 7.29304 16.9104 8.05861C16.9104 8.86447 16.5763 9.55617 15.908 10.1337C15.2542 10.7112 14.4116 11 13.3801 11ZM4.14044 11C3.31235 11 2.58596 10.7985 1.96126 10.3956C1.33656 9.99267 0.849879 9.46215 0.501211 8.80403C0.16707 8.14591 0 7.42735 0 6.64835C0 5.33211 0.479419 4.07631 1.43826 2.88095C2.39709 1.68559 3.64649 0.725275 5.18644 0L8.76029 1.85348C7.80145 2.26984 6.95884 2.76679 6.23245 3.34432C5.50605 3.92186 4.99758 4.59341 4.70702 5.35897C5.53511 5.46642 6.23245 5.75519 6.79903 6.22527C7.38015 6.68193 7.6707 7.29304 7.6707 8.05861C7.6707 8.86447 7.33656 9.55617 6.66828 10.1337C6.01453 10.7112 5.17191 11 4.14044 11Z" fill="#E6D5D5"/>
<path d="M246.781 61L243.155 59.1465C244.128 58.7167 244.99 58.2131 245.742 57.6355C246.494 57.058 247.002 56.3932 247.268 55.641C246.398 55.5201 245.676 55.2247 245.101 54.7546C244.541 54.2711 244.26 53.6532 244.26 52.9011C244.26 52.0549 244.607 51.3632 245.3 50.826C246.007 50.2753 246.87 50 247.887 50C248.757 50 249.494 50.2015 250.098 50.6044C250.717 51.0073 251.189 51.5378 251.514 52.196C251.838 52.8541 252 53.5726 252 54.3516C252 55.6813 251.514 56.9371 250.541 58.119C249.582 59.2875 248.329 60.2479 246.781 61ZM237.627 61L234 59.1465C234.973 58.7167 235.835 58.2131 236.587 57.6355C237.339 57.058 237.848 56.3932 238.113 55.641C237.243 55.5201 236.521 55.2247 235.946 54.7546C235.386 54.2711 235.106 53.6532 235.106 52.9011C235.106 52.0549 235.452 51.3632 236.145 50.826C236.853 50.2753 237.715 50 238.732 50C239.602 50 240.339 50.2015 240.943 50.6044C241.563 51.0073 242.034 51.5378 242.359 52.196C242.683 52.8541 242.845 53.5726 242.845 54.3516C242.845 55.6813 242.359 56.9371 241.386 58.119C240.428 59.2875 239.174 60.2479 237.627 61Z" fill="#E6D5D5"/>
</svg>
